<svg width="14" height="14" viewBox="0 0 14 14" fill="none" xmlns="http://www.w3.org/2000/svg">
  <g clip-path="url(#clip0_3807_899)">
    <path d="M13.0488 12.875C12.9171 10.3729 10.6683 9.33777 10.6683 9.33777C10.131 9.08655 9.15685 8.59476 8.51818 8.26967C9.33645 7.37445 9.57813 5.91486 9.61576 5.70717C9.78653 4.76743 9.70059 3.60428 9.70059 3.60428C9.54443 1.34243 7.2608 1.3069 7.02166 1.30928C7.00846 1.30928 6.99988 1.30942 6.99988 1.30942C6.99988 1.30942 6.99258 1.30928 6.98176 1.30942C6.76495 1.30661 4.45617 1.32951 4.29918 3.60428C4.29918 3.60428 4.21323 4.76729 4.384 5.70717C4.3951 5.7677 4.42403 5.93634 4.47894 6.16439C4.90907 6.72905 5.57314 7.00597 6.11815 7.14148C6.18669 7.07491 6.28007 7.03349 6.38356 7.03349H7.37694C7.58717 7.03349 7.75737 7.20382 7.75737 7.41405C7.75737 7.62441 7.58717 7.79489 7.37694 7.79489H6.38356C6.2267 7.79489 6.0926 7.70025 6.03404 7.56528C5.62751 7.46641 5.15707 7.29425 4.73718 6.9981C4.9047 7.43299 5.14343 7.8995 5.48186 8.26981C4.84319 8.5949 3.86948 9.08652 3.33178 9.33777C3.33178 9.33777 1.08326 10.3729 0.951245 12.875C0.951245 12.875 0.912196 13.2911 1.7007 13.4486C1.7007 13.4486 4.11633 13.9999 7.00016 13.9999C9.88426 13.9999 12.2999 13.4486 12.2999 13.4486C13.0883 13.2911 13.0488 12.875 13.0488 12.875Z" fill="black" />
    <path d="M3.52625 6.51835H3.76624V3.69954C3.76681 3.69251 3.76848 3.68577 3.76848 3.67861V3.26238C3.76848 2.52036 3.99751 1.9189 4.44926 1.47461C5.38367 0.555228 6.97976 0.567742 7.00671 0.571516C7.02567 0.570121 8.60843 0.547359 9.54702 1.46603C10.0019 1.91119 10.2326 2.51544 10.2326 3.26238V3.70249C10.2326 3.70683 10.2337 3.71077 10.2337 3.71498V6.51832H10.4737C11.0643 6.51832 11.543 6.0396 11.543 5.44911V4.42145C11.543 3.94639 11.2329 3.54421 10.804 3.40503V3.26249C10.804 2.35618 10.5154 1.61445 9.94682 1.05779C8.83833 -0.0271221 7.06767 0.000969413 7.00575 0.000123006C6.93133 -0.000586145 5.15898 -0.0223411 4.05102 1.06456C3.48441 1.62065 3.19695 2.36013 3.19695 3.26238V3.40435C2.76752 3.5435 2.45703 3.94598 2.45703 4.42132V5.44897C2.45705 6.03962 2.93589 6.51835 3.52625 6.51835Z" fill="black" />
  </g>
  <defs>
    <clipPath id="clip0_3807_899">
      <rect width="14" height="14" fill="white" />
    </clipPath>
  </defs>
</svg>